<svg width="179" height="191" viewBox="0 0 179 191" fill="none" xmlns="http://www.w3.org/2000/svg">
<g id="Vector">
<path d="M178.902 75.7091L162.722 47.6668L162.714 75.7044L178.902 75.7091Z" fill="white"/>
<path d="M131.702 28.4816L115.523 0.439217L115.514 28.4768L131.702 28.4816Z" fill="white"/>
<path d="M0.827171 115.067L17.0064 143.109L17.0147 115.072L0.827171 115.067Z" fill="white"/>
<path d="M48.0268 162.295L64.2061 190.337L64.2144 162.299L48.0268 162.295Z" fill="white"/>
<path fill-rule="evenodd" clip-rule="evenodd" d="M17.0147 115.072L0.827171 115.067L0.847084 47.6189L17.0263 75.6613L17.0147 115.072ZM17.0147 115.072L48.0408 115.081L48.0325 143.119L17.0064 143.109L17.0147 115.072ZM162.702 115.115L162.714 75.7044L178.902 75.7091L178.882 143.157L131.668 143.143L131.654 190.357L64.2061 190.337L64.2144 162.299L115.475 162.314L115.489 115.101L162.702 115.115Z" fill="white"/>
<path d="M64.2399 75.6753L64.2539 28.4617L115.514 28.4768L115.523 0.439217L48.0746 0.419301L48.0607 47.6329L64.2399 75.6753Z" fill="white"/>
<path d="M17.0263 75.6613L64.2399 75.6753L48.0607 47.6329L0.847084 47.6189L17.0263 75.6613Z" fill="white"/>
<path d="M48.0325 143.119L48.0268 162.295L64.2144 162.299L64.22 143.123L48.0408 115.081L48.0325 143.119Z" fill="white"/>
<path d="M131.696 47.6576L131.702 28.4816L115.514 28.4768L115.509 47.6528L131.696 47.6576Z" fill="white"/>
<path d="M162.714 75.7044L162.722 47.6668L146.535 47.662L131.696 47.6576L131.688 75.6952L162.714 75.7044Z" fill="white"/>
<path d="M131.696 47.6576L115.509 47.6528L131.688 75.6952L131.696 47.6576Z" fill="white"/>
</g>
</svg>
