<svg width="179" height="191" viewBox="0 0 179 191" fill="none" xmlns="http://www.w3.org/2000/svg">
<g id="Vector">
<path fill-rule="evenodd" clip-rule="evenodd" d="M20.6057 134.977C19.982 134.272 19.3705 133.557 18.7714 132.83C7.22929 118.836 0.298588 100.897 0.304359 81.3408L16.4836 109.383C16.481 118.327 17.9291 126.933 20.6057 134.977ZM158.058 55.7947C170.696 70.078 178.365 88.8594 178.359 109.431C178.346 154.132 142.098 190.358 97.3973 190.345C61.6406 190.334 31.3063 167.138 20.6057 134.977C35.4293 151.73 57.0891 162.295 81.2181 162.302C125.919 162.316 162.166 126.089 162.18 81.3886C162.182 72.4448 160.734 63.8393 158.058 55.7947ZM158.058 55.7947C143.234 39.0415 121.574 28.4766 97.4451 28.4695L81.2659 0.427121C117.023 0.437673 147.357 23.6335 158.058 55.7947Z" fill="white"/>
<path d="M16.4836 109.383C16.4968 64.6826 52.7445 28.4563 97.4451 28.4695L81.2659 0.427121C36.5653 0.41392 0.317559 36.6402 0.304359 81.3408L16.4836 109.383Z" fill="white"/>
</g>
</svg>
