<svg width="179" height="191" viewBox="0 0 179 191" fill="none" xmlns="http://www.w3.org/2000/svg">
<g id="Vector">
<path d="M178.164 28.1486L161.984 0.106248L161.976 28.1438L178.164 28.1486Z" fill="white"/>
<path fill-rule="evenodd" clip-rule="evenodd" d="M17.4178 148.293C16.7702 147.706 16.1372 147.103 15.5194 146.485C5.97432 136.934 0.07275 123.742 0.0770454 109.172L0.109282 0.0583797L161.984 0.106248L161.976 28.1438L16.2885 28.1008L16.2563 137.215C16.2551 141.014 16.6557 144.721 17.4178 148.293ZM17.4178 148.293C26.7774 156.776 39.1961 161.945 52.8228 161.949L109.175 161.966C138.315 161.974 161.944 138.359 161.952 109.22L161.976 28.1438L178.164 28.1486L178.131 137.262C178.123 166.402 154.494 190.017 125.355 190.008L69.002 189.992C43.6625 189.984 22.5004 172.115 17.4178 148.293Z" fill="white"/>
</g>
</svg>
